<svg width="128" height="128" xmlns="http://www.w3.org/2000/svg">
    <title />

    <g>
        <title>background</title>
        <rect fill="none" id="canvas_background" height="402" width="582" y="-1" x="-1" />
    </g>
    <g>
        <title>Layer 1</title>
        <path fill="#ffffff" stroke-width="10" id="svg_1" d="m61.61737,106.131696l0,0a3,3 0 0 0 0.44,0.36l0.24,0.13a1.74,1.74 0 0 0 0.59,0.24l0.25,0.07l0,0a3,3 0 0 0 1.16,0l0.26,-0.08l0.3,-0.09a3,3 0 0 0 0.3,-0.16l0.21,-0.12a3,3 0 0 0 0.46,-0.38l26.91,-26.88a3,3 0 1 0 -4.21,-4.21l-21.79,21.76l0,-80.76a3,3 0 0 0 -6,0l0,80.76l-21.79,-21.76a3,3 0 0 0 -4.21,4.21l26.88,26.91z" />
        <path fill="#ffffff" stroke-width="10" id="svg_2" d="m125,88a3,3 0 0 0 -3,3l0,22a9,9 0 0 1 -9,9l-98,0a9,9 0 0 1 -9,-9l0,-22a3,3 0 0 0 -6,0l0,22a15,15 0 0 0 15,15l98,0a15,15 0 0 0 15,-15l0,-22a3,3 0 0 0 -3,-3z" />
    </g>
</svg>