<svg width="20" height="20" viewBox="0 0 20 20" xmlns="http://www.w3.org/2000/svg">
    <g id="newsfeed_outline_20__Icons" stroke="none" stroke-width="1" fill="none" fill-rule="evenodd">
        <g id="newsfeed_outline_20__Icons-20/newsfeed_outline_20">
            <g id="newsfeed_outline_20__newsfeed_outline_20">
                <path opacity=".04" d="M0 0h20v20H0z"></path>
                <path d="M13.08 2c1.44 0 2.14.13 2.86.52a3.7 3.7 0 011.54 1.54c.39.72.52 1.42.52 2.86v6.16c0 1.44-.13 2.14-.52 2.86a3.7 3.7 0 01-1.54 1.54c-.72.39-1.42.52-2.86.52H6.92c-1.44 0-2.14-.13-2.86-.52a3.7 3.7 0 01-1.54-1.54c-.39-.72-.52-1.42-.52-2.86V6.92c0-1.44.13-2.14.52-2.86a3.7 3.7 0 011.54-1.54C4.78 2.13 5.48 2 6.92 2h6.16zm3.42 6h-13v5.08c0 1.21.09 1.68.35 2.15.2.4.52.71.92.92.47.26.94.35 2.15.35h6.16c1.21 0 1.68-.09 2.15-.35.4-.2.71-.52.92-.92.26-.47.35-.94.35-2.15V8zm-3.42-4.5H6.92c-1.21 0-1.68.09-2.15.35-.4.2-.71.52-.92.92-.23.42-.33.82-.35 1.73h13a3.48 3.48 0 00-.35-1.73 2.2 2.2 0 00-.92-.92c-.47-.26-.94-.35-2.15-.35z" id="newsfeed_outline_20__Icon-Color" fill="#3c26c7" fill-rule="nonzero"></path>
            </g>
        </g>
    </g>
</svg>